<?xml version="1.0" encoding="UTF-8" standalone="no"?>
<!-- Created with Inkscape (http://www.inkscape.org/) -->
<svg
   xmlns:dc="http://purl.org/dc/elements/1.1/"
   xmlns:cc="http://creativecommons.org/ns#"
   xmlns:rdf="http://www.w3.org/1999/02/22-rdf-syntax-ns#"
   xmlns:svg="http://www.w3.org/2000/svg"
   xmlns="http://www.w3.org/2000/svg"
   xmlns:sodipodi="http://sodipodi.sourceforge.net/DTD/sodipodi-0.dtd"
   xmlns:inkscape="http://www.inkscape.org/namespaces/inkscape"
   width="744.09448819"
   height="1052.3622047"
   id="svg2"
   sodipodi:version="0.32"
   inkscape:version="0.46"
   sodipodi:docname="Logo.svg"
   inkscape:export-filename="/home/michael/Projects/twg/static/twg_logo.png"
   inkscape:export-xdpi="20.347002"
   inkscape:export-ydpi="20.347002"
   inkscape:output_extension="org.inkscape.output.svg.inkscape">
  <sodipodi:namedview
     id="base"
     pagecolor="#f57900"
     bordercolor="#666666"
     borderopacity="1.0"
     gridtolerance="10000"
     guidetolerance="10"
     objecttolerance="10"
     inkscape:pageopacity="1"
     inkscape:pageshadow="2"
     inkscape:zoom="1.4"
     inkscape:cx="387.40369"
     inkscape:cy="520.18082"
     inkscape:document-units="px"
     inkscape:current-layer="svg2"
     showgrid="false"
     inkscape:window-width="1280"
     inkscape:window-height="737"
     inkscape:window-x="0"
     inkscape:window-y="30" />
  <defs
     id="defs4">
    <inkscape:perspective
       id="perspective10"
       inkscape:persp3d-origin="372.04724 : 350.78739 : 1"
       inkscape:vp_z="744.09448 : 526.18109 : 1"
       inkscape:vp_y="0 : 1000 : 0"
       inkscape:vp_x="0 : 526.18109 : 1"
       sodipodi:type="inkscape:persp3d" />
    <inkscape:perspective
       id="perspective3324"
       inkscape:persp3d-origin="50 : 33.333333 : 1"
       inkscape:vp_z="100 : 50 : 1"
       inkscape:vp_y="0 : 1000 : 0"
       inkscape:vp_x="0 : 50 : 1"
       sodipodi:type="inkscape:persp3d" />
    <inkscape:perspective
       id="perspective3420"
       inkscape:persp3d-origin="93.75 : 62.5 : 1"
       inkscape:vp_z="187.5 : 93.75 : 1"
       inkscape:vp_y="0 : 1000 : 0"
       inkscape:vp_x="0 : 93.75 : 1"
       sodipodi:type="inkscape:persp3d" />
  </defs>
  <metadata
     id="metadata7">
    <rdf:RDF>
      <cc:Work
         rdf:about="">
        <dc:format>image/svg+xml</dc:format>
        <dc:type
           rdf:resource="http://purl.org/dc/dcmitype/StillImage" />
      </cc:Work>
    </rdf:RDF>
  </metadata>
  <g
     id="layer1"
     inkscape:groupmode="layer"
     inkscape:label="Layer 1">
    <path
       sodipodi:nodetypes="ccccc"
       id="path2387"
       d="M 377.29198,485.6666 C 312.47428,476.15364 283.26111,423.24681 194.26618,452.84408 C 179.79477,442.68188 167.51431,400.77974 178.797,400.81379 L 365.70861,420.54216 L 377.29198,485.6666 z"
       style="fill:#ce6600;fill-rule:evenodd;stroke:#ffffff;stroke-width:6;stroke-linecap:butt;stroke-linejoin:miter;stroke-opacity:1;stroke-miterlimit:4;stroke-dasharray:none;fill-opacity:1" />
    <path
       sodipodi:nodetypes="ccccc"
       id="path2385"
       d="M 178.797,400.81379 C 241.12467,407.11761 247.15065,532.47034 184.85791,678.60574 C 270.59372,634.50239 308.71221,638.59764 360.62445,659.41284 C 342.47037,570.82032 435.55309,467.78833 372.74629,409.90517 C 297.14598,415.08762 240.03033,406.40658 178.797,400.81379 z"
       style="fill:#f57900;fill-rule:evenodd;stroke:#ffffff;stroke-width:6;stroke-linecap:butt;stroke-linejoin:miter;stroke-opacity:1;stroke-miterlimit:4;stroke-dasharray:none;fill-opacity:1" />
    <path
       id="path2389"
       d="M 251.06298,468.35156 C 251.06298,468.35156 257.37011,426.98005 257.37011,426.98005 C 257.37011,426.98005 248.16187,481.68406 248.16187,481.68406 C 248.16187,481.68406 268.09518,436.57977 268.09518,436.57977 C 268.09518,436.57977 270.00608,468.43079 270.00608,468.43079 C 270.00608,468.43079 276.13022,441.8223 276.13022,441.8223 C 276.13022,441.8223 280.99351,465.81248 280.99351,465.81248 C 280.99351,465.81248 294.60747,440.50617 294.60747,440.50617 C 294.60747,440.50617 292.65819,464.55918 292.65819,464.55918 C 292.65819,464.55918 305.37503,443.61183 305.37503,443.61183 C 305.37503,443.61183 307.63613,455.94934 307.63613,455.94934 C 307.63613,455.94934 325.10979,441.4272 325.10979,441.4272 C 325.10979,441.4272 333.58104,469.17752 333.58104,469.17752 C 333.58104,469.17752 339.73056,428.74337 339.73056,428.74337 C 339.73056,428.74337 335.27068,466.7638 335.27068,466.7638 C 335.27068,466.7638 347.67393,447.06013 347.67393,447.06013 C 347.67393,447.06013 351.90585,463.66564 351.90585,463.66564 C 351.90585,463.66564 350.32588,428.81828 350.32588,428.81828 C 350.32588,428.81828 357.14128,471.93977 357.14128,471.93977"
       style="fill:none;fill-rule:evenodd;stroke:#ffffff;stroke-width:4.89389420000000008;stroke-linecap:butt;stroke-linejoin:round;stroke-miterlimit:5;stroke-dasharray:none;stroke-opacity:1" />
    <path
       style="fill:none;fill-rule:evenodd;stroke:#ffffff;stroke-width:4.46663046000000019;stroke-linecap:butt;stroke-linejoin:round;stroke-miterlimit:5;stroke-dasharray:none;stroke-opacity:1"
       d="M 360.729,515.44751 L 353.7553,545.0961 L 352.36056,505.4126 L 343.29475,539.62251 L 340.50527,513.62299 L 331.43946,534.14893 L 326.55787,514.53525 L 314.70258,538.71025 L 313.30784,513.16685 L 301.45255,537.34185 L 297.96569,519.09657 L 284.71567,533.69279 L 278.43933,518.1843 L 271.46563,544.63996 L 273.55774,513.62299 L 262.39982,530.49987 L 262.39982,515.90364 L 256.82085,541.90317 L 252.63664,519.5527"
       id="path3161" />
    <path
       style="fill:#ffffff;fill-opacity:1;fill-rule:evenodd;stroke:none;stroke-width:5;stroke-linecap:butt;stroke-linejoin:round;stroke-miterlimit:5;stroke-dasharray:none;stroke-opacity:1"
       d="M 357.17091,597.57712 L 318.39507,598.83477 L 308.48135,595.68545 C 307.56829,595.3934 306.56862,595.64914 305.90796,596.34376 L 300.54128,601.85764 L 299.32313,597.07806 C 299.08752,596.15472 298.34749,595.44559 297.41493,595.24952 C 296.48236,595.05347 295.51945,595.40456 294.93196,596.15485 L 288.18805,604.94233 L 280.75792,593.10571 C 280.20937,592.26227 279.20865,591.82983 278.21844,592.00837 C 277.22825,592.18686 276.44157,592.94151 276.22202,593.9234 L 272.22763,612.58493 L 268.16582,593.73322 C 267.93387,592.51712 266.8469,591.65386 265.60985,591.70339 C 264.3728,591.75291 263.35828,592.70027 263.22428,593.93104 L 260.00912,618.67069 L 252.67684,589.43043 C 252.38992,588.23103 251.27131,587.41998 250.04213,587.52016 C 248.86993,587.61866 247.92497,588.52099 247.77246,589.68742 L 245.0835,608.536 L 243.82312,594.27856 C 243.71893,593.04905 242.73333,592.07942 241.5023,591.99529 C 240.27124,591.91114 239.16291,592.73765 238.89239,593.94155 L 229.47232,637.21225 L 234.34822,638.27673 L 240.27239,611.0445 L 241.98759,630.62673 C 242.0753,631.91058 243.12322,632.91823 244.40954,632.95553 C 245.69588,632.99285 246.80044,632.04766 246.96242,630.77104 L 250.91975,603.00789 L 258.35658,632.67753 C 258.65235,633.83856 259.73014,634.6266 260.92615,634.55628 C 262.12219,634.48602 263.10026,633.57714 263.25796,632.38947 L 266.31113,608.89005 L 269.79277,625.00377 C 270.03354,626.16533 271.05736,626.99783 272.24362,626.9966 C 273.42984,626.99534 274.45193,626.16071 274.69024,624.99865 L 279.79711,600.98562 L 285.88677,610.66057 C 286.32672,611.34937 287.07554,611.77965 287.89217,611.8129 C 288.70882,611.84612 289.49015,611.47816 289.98464,610.82737 L 295.75178,603.29653 L 296.81013,607.40091 C 297.03143,608.28135 297.7126,608.97266 298.58969,609.20693 C 299.46679,609.44124 300.40194,609.18166 301.03283,608.52887 L 308.45753,600.93111 L 317.33361,603.74175 C 317.65048,603.84854 317.98555,603.89069 318.31897,603.86573 L 357.17091,597.57712 z"
       id="path3285"
       sodipodi:nodetypes="ccccccscccscccscccccccscccccscccscccscccscccsccccc" />
    <g
       id="g2668"
       transform="matrix(1.3011172,0.227985,-0.227985,1.3011172,1007.1309,253.87758)"
       style="fill:#f57900;fill-opacity:1;stroke:#ffffff;stroke-opacity:1"
       inkscape:transform-center-x="-90.180197"
       inkscape:transform-center-y="-65.76578">
      <path
         d="M -354,232.36218 L -443,321.36218 L -449.08494,344.07147 L -427.4851,338.28382 L -337.78173,248.58045 C -337.78173,248.58045 -329.47534,240.61253 -337.78173,232.36218 C -345.58707,224.6095 -353.61441,231.99461 -354,232.36218 z"
         id="path2656"
         style="fill:#f57900;fill-opacity:1;fill-rule:evenodd;stroke:#ffffff;stroke-width:4.5;stroke-linecap:butt;stroke-linejoin:miter;stroke-miterlimit:4;stroke-dasharray:none;stroke-opacity:1" />
      <path
         d="M -424.5334,334.23756 C -424.5334,334.23756 -429.21947,336.21259 -431.36059,333.99653 C -433.50171,331.78045 -432.44831,327.28649 -432.44831,327.28649 C -432.44831,327.28649 -436.24512,329.25123 -437.79339,327.02828 C -439.34166,324.80533 -439.9723,323.53214 -439.14919,321.28172 C -438.32607,319.03131 -438.94727,318.07813 -438.94727,318.07813"
         id="path2658"
         style="fill:#f57900;fill-opacity:1;fill-rule:evenodd;stroke:#ffffff;stroke-width:2.29793;stroke-linecap:butt;stroke-linejoin:miter;stroke-miterlimit:4;stroke-dasharray:none;stroke-opacity:1" />
      <path
         d="M -447.40541,341.8757 L -442.71351,337.85407"
         id="path2662"
         style="fill:#f57900;fill-opacity:1;fill-rule:evenodd;stroke:#ffffff;stroke-width:6.25;stroke-linecap:butt;stroke-linejoin:miter;stroke-miterlimit:4;stroke-dasharray:none;stroke-opacity:1" />
      <path
         d="M -432.14054,327.46488 C -427.78379,323.10813 -338.30271,234.96759 -338.30271,234.96759"
         id="path2664"
         style="fill:#f57900;fill-opacity:1;fill-rule:evenodd;stroke:#ffffff;stroke-width:2.75;stroke-linecap:butt;stroke-linejoin:miter;stroke-miterlimit:4;stroke-dasharray:none;stroke-opacity:1" />
      <path
         d="M -335.39459,238.29372 C -335.39459,243.19761 -339.18928,247.173 -343.87027,247.173 C -348.55126,247.173 -352.34595,243.19761 -352.34595,238.29372 C -352.34595,233.38983 -348.55126,229.41444 -343.87027,229.41444 C -339.18928,229.41444 -335.39459,233.38983 -335.39459,238.29372 L -335.39459,238.29372 z"
         id="path2666"
         style="opacity:1;fill:#f57900;fill-opacity:1;stroke:#ffffff;stroke-width:2.75;stroke-linecap:round;stroke-linejoin:round;stroke-miterlimit:4;stroke-dasharray:none;stroke-dashoffset:0;stroke-opacity:1"
         transform="matrix(0.708787,0.144083,0.40256,0.825487,-193.876,87.7153)" />
    </g>
  </g>
</svg>
